<?xml version="1.0" encoding="UTF-8" standalone="no"?>
<!DOCTYPE svg PUBLIC "-//W3C//DTD SVG 1.1//EN" "http://www.w3.org/Graphics/SVG/1.1/DTD/svg11.dtd">
<svg width="100%" height="100%" viewBox="0 0 1974 474" version="1.1" xmlns="http://www.w3.org/2000/svg" xmlns:xlink="http://www.w3.org/1999/xlink" xml:space="preserve" xmlns:serif="http://www.serif.com/" style="fill-rule:evenodd;clip-rule:evenodd;stroke-linejoin:round;stroke-miterlimit:2;">
    <g transform="matrix(1,0,0,1,-767.145,-618.26)">
        <g transform="matrix(0.631203,0,0,0.631203,188.354,-3157.62)">
            <g transform="matrix(1.40469,-5.16075e-16,5.16075e-16,1.40469,68.3654,4002.34)">
                <path d="M604.118,1845.49C804.586,1810.38 972.706,1769.04 1080.4,1515.98C1342.15,1580.77 1543.45,1622.37 1717.07,1409.34C1832.09,1563.35 2059.55,1620.29 2348.71,1513.96C2405.72,1651.17 2526.24,1812.19 2830.02,1845.49C2665.26,1908 2537.85,1997.22 2263.35,1895.01C2005.6,1998.98 1730.93,1845.49 1717.07,1842.66C1726.23,1840.07 1481.38,2012.29 1149.93,1895.01C846.735,1995.38 786.82,1918.6 604.118,1845.49Z" style="fill:rgb(50,90,132);"/>
            </g>
        </g>
    </g>
</svg>
